<?xml version="1.0" standalone="no"?>
<!DOCTYPE svg PUBLIC "-//W3C//DTD SVG 20010904//EN"
 "http://www.w3.org/TR/2001/REC-SVG-20010904/DTD/svg10.dtd">
<svg version="1.0" xmlns="http://www.w3.org/2000/svg"
 width="1024.000000pt" height="1024.000000pt" viewBox="0 0 1024.000000 1024.000000"
 preserveAspectRatio="xMidYMid meet">

<g transform="translate(0.000000,1024.000000) scale(0.100000,-0.100000)"
fill="#000000" stroke="none">
<path d="M4905 7925 c-143 -15 -155 -17 -315 -62 -186 -53 -373 -135 -562
-248 -109 -66 -248 -158 -248 -165 0 -3 100 -5 223 -4 l222 1 125 61 c343 166
713 225 1080 172 166 -23 205 -32 350 -77 118 -36 169 -59 316 -139 107 -58
169 -105 267 -202 174 -171 251 -328 264 -542 10 -162 -27 -259 -114 -301 -46
-22 -71 -45 -149 -135 -83 -97 -230 -199 -347 -242 -112 -42 -344 -102 -497
-128 -144 -25 -186 -27 -595 -34 -587 -11 -717 -24 -957 -99 -155 -48 -239
-85 -350 -155 -189 -118 -374 -292 -467 -436 -49 -78 -129 -250 -146 -317 -40
-158 -55 -407 -34 -573 24 -196 126 -516 183 -580 13 -14 27 -34 31 -45 18
-46 27 66 22 275 -6 245 9 434 44 545 12 39 43 114 70 168 44 86 63 111 167
215 103 104 243 224 338 290 127 88 376 174 669 233 65 12 407 28 688 31 276
3 285 1 268 -46 -12 -31 -91 -44 -351 -56 -673 -31 -937 -99 -1281 -330 -229
-154 -394 -381 -445 -611 -9 -41 -22 -80 -28 -88 -8 -11 -8 -15 2 -18 9 -4 12
-54 12 -207 0 -306 22 -424 102 -549 41 -65 342 -345 488 -456 240 -181 629
-327 966 -362 186 -19 478 -7 644 26 267 53 444 111 693 228 l118 55 -37 12
c-60 20 -185 79 -236 111 l-46 30 -55 -31 c-92 -52 -270 -110 -430 -141 -91
-17 -309 -39 -393 -39 -196 0 -478 44 -634 100 -169 60 -213 84 -545 305 -121
81 -226 194 -275 297 -74 155 -76 272 -6 443 39 96 93 173 158 226 24 18 78
67 121 108 149 143 296 218 542 280 200 50 241 57 500 82 216 20 307 27 720
54 262 18 265 18 440 69 145 41 270 95 430 183 135 74 183 109 273 201 259
264 343 433 373 747 15 158 2 283 -47 462 -37 137 -134 352 -174 388 l-23 20
8 -55 c4 -30 11 -84 16 -120 15 -111 11 -397 -7 -501 -21 -122 -56 -242 -102
-349 -32 -75 -48 -96 -133 -182 -54 -54 -104 -98 -113 -98 -9 0 -22 -12 -30
-28 -23 -45 -150 -151 -208 -173 -29 -12 -61 -25 -71 -31 -11 -5 -20 -8 -21
-6 -13 21 -48 109 -45 111 44 31 219 175 263 217 124 117 263 333 290 451 68
297 36 694 -75 925 -77 161 -218 336 -373 460 -249 200 -623 342 -1008 384
-125 13 -360 11 -513 -5z m1819 -1622 c-10 -56 -61 -202 -81 -232 -41 -64
-168 -201 -233 -251 -111 -87 -344 -199 -490 -236 -167 -42 -210 -45 -850 -54
-344 -5 -663 -14 -710 -20 -104 -13 -284 -58 -405 -100 -173 -61 -394 -214
-609 -421 -58 -56 -106 -99 -106 -96 0 3 15 39 34 79 70 152 211 318 361 425
276 197 597 272 1165 273 237 1 634 17 753 31 188 22 474 101 609 170 70 35
167 108 262 196 48 46 91 83 95 83 3 0 38 37 76 82 56 65 104 104 133 108 2 0
0 -17 -4 -37z m101 -771 c-56 -77 -197 -201 -274 -241 -199 -103 -428 -182
-621 -215 -119 -20 -481 -51 -842 -71 -454 -25 -604 -53 -862 -161 -196 -83
-431 -275 -598 -491 -44 -57 -84 -105 -89 -109 -9 -5 -7 45 7 135 17 106 194
319 399 478 69 53 234 129 388 177 178 56 331 81 599 96 496 27 767 56 993
106 153 34 409 108 430 124 6 4 46 17 89 29 51 14 111 41 165 74 107 65 235
126 239 115 2 -5 -8 -25 -23 -46z"/>
<path d="M5020 7520 c-89 -10 -251 -38 -258 -45 -3 -3 4 -6 16 -6 30 -2 34 -3
57 -15 11 -6 48 -14 82 -17 109 -11 215 -38 328 -82 61 -24 128 -48 150 -54
71 -19 278 -127 340 -178 118 -96 254 -307 292 -453 21 -83 22 -292 1 -412 -8
-49 -14 -88 -12 -88 2 0 26 14 54 31 28 17 92 78 145 137 52 59 105 118 118
132 13 14 43 66 67 115 42 85 44 94 43 175 -1 134 -45 231 -161 353 -98 102
-188 159 -400 253 -260 115 -626 180 -862 154z"/>
<path d="M2855 7303 c8 -18 37 -50 63 -70 68 -54 412 -226 512 -257 141 -42
276 -150 332 -264 l33 -66 7 -325 c10 -448 8 -422 33 -405 67 43 390 114 521
114 l72 0 -2 405 -2 406 25 7 c14 3 85 7 156 7 152 0 249 -21 380 -84 208 -99
319 -238 332 -416 5 -63 -17 -192 -53 -307 -6 -19 11 -18 181 9 156 24 319 93
373 159 64 77 86 132 90 226 11 226 -106 450 -300 574 -139 89 -333 174 -487
214 -156 40 -240 43 -1236 44 -1006 1 -997 1 -1032 44 -10 12 -9 7 2 -15z"/>
<path d="M5775 4723 c-64 -23 -233 -41 -480 -53 -126 -5 -247 -10 -268 -10
l-39 0 64 -89 c650 -915 1085 -1328 1578 -1494 231 -78 532 -107 863 -83 100
7 118 10 115 24 -2 9 -21 23 -43 31 -37 13 -154 62 -235 99 -47 22 -276 161
-373 228 -107 74 -257 195 -350 283 -77 74 -308 336 -421 479 -142 180 -283
408 -331 534 -23 63 -32 68 -80 51z"/>
<path d="M4298 4461 c-159 -85 -259 -168 -376 -309 -82 -99 -106 -154 -107
-237 0 -64 4 -80 48 -169 70 -145 174 -248 374 -369 183 -111 524 -207 851
-238 218 -22 503 15 737 93 50 17 94 34 99 39 4 4 -10 17 -32 28 -22 11 -67
45 -99 74 -46 43 -62 53 -78 47 -11 -4 -61 -13 -110 -19 -338 -40 -673 -10
-859 77 -122 58 -214 170 -275 338 -45 124 -54 204 -55 467 0 130 -3 236 -6
236 -3 -1 -53 -27 -112 -58z"/>
<path d="M7144 3964 c-21 -14 -75 -62 -119 -107 -44 -46 -115 -115 -159 -155
l-79 -72 49 -53 c27 -29 66 -65 87 -81 l37 -27 68 62 c205 192 307 301 342
368 16 31 3 42 -78 70 -80 27 -101 26 -148 -5z"/>
<path d="M4870 2096 c-3 -3 -29 -6 -58 -7 -42 -2 -52 -6 -52 -20 0 -18 -58
-25 -247 -32 -40 -1 -73 -5 -73 -8 0 -3 -60 -9 -132 -12 -73 -3 -143 -9 -155
-12 -16 -5 -23 -2 -28 15 -4 14 -10 18 -18 12 -7 -5 -50 -12 -96 -15 -83 -7
-111 -17 -111 -43 0 -10 18 -14 70 -16 119 -3 130 -4 144 -23 8 -11 15 -14 19
-8 4 6 65 11 146 12 159 2 170 -2 173 -72 1 -33 2 -35 5 -12 l4 30 140 -2 c77
-1 144 -5 148 -8 5 -2 11 5 15 18 5 22 8 22 155 22 l150 0 6 -24 c4 -14 9 -21
13 -15 4 5 73 9 154 9 118 0 148 -3 148 -14 0 -8 6 -11 18 -6 43 17 202 38
256 33 36 -2 47 0 51 13 4 13 27 17 112 22 174 11 201 10 205 -11 3 -16 9 -17
88 -6 47 7 105 17 130 24 25 6 57 10 72 8 33 -5 50 25 35 62 -7 18 -11 21 -14
9 -3 -14 -10 -14 -71 -1 -37 9 -106 16 -154 16 -49 1 -88 4 -88 7 0 3 -13 6
-29 7 -16 0 -50 8 -75 16 -51 18 -205 24 -215 9 -7 -12 -21 -11 -145 11 -104
19 -173 20 -178 5 -2 -7 -55 -12 -156 -13 -129 -1 -152 1 -152 14 0 10 -3 11
-8 4 -4 -6 -16 -10 -27 -9 -11 1 -54 5 -95 9 -42 4 -78 5 -80 2z"/>
<path d="M3802 1920 c0 -14 2 -19 5 -12 2 6 2 18 0 25 -3 6 -5 1 -5 -13z"/>
<path d="M288 1425 c-2 -25 0 -45 4 -45 5 0 8 20 8 45 0 25 -2 45 -4 45 -2 0
-6 -20 -8 -45z"/>
<path d="M1261 1344 c0 -11 3 -14 6 -6 3 7 2 16 -1 19 -3 4 -6 -2 -5 -13z"/>
<path d="M9855 1060 c-12 -5 36 -9 128 -9 96 -1 146 2 142 9 -8 12 -242 12
-270 0z"/>
<path d="M12 903 c2 -161 6 -143 10 50 2 59 0 107 -4 107 -5 0 -7 -71 -6 -157z"/>
<path d="M1582 1040 c0 -14 2 -19 5 -12 2 6 2 18 0 25 -3 6 -5 1 -5 -13z"/>
<path d="M294 885 c0 -71 1 -99 3 -62 2 37 2 96 0 130 -2 34 -3 4 -3 -68z"/>
<path d="M7912 790 c0 -19 2 -27 5 -17 2 9 2 25 0 35 -3 9 -5 1 -5 -18z"/>
<path d="M9812 780 c0 -14 2 -19 5 -12 2 6 2 18 0 25 -3 6 -5 1 -5 -13z"/>
<path d="M1643 753 c9 -2 23 -2 30 0 6 3 -1 5 -18 5 -16 0 -22 -2 -12 -5z"/>
<path d="M4607 748 c15 -7 40 -7 80 -1 l58 10 -80 1 c-63 1 -75 -2 -58 -10z"/>
<path d="M8234 640 c0 -58 1 -81 3 -52 2 28 2 76 0 105 -2 28 -3 5 -3 -53z"/>
<path d="M9653 733 c31 -2 83 -2 115 0 31 2 5 3 -58 3 -63 0 -89 -1 -57 -3z"/>
<path d="M1298 723 c12 -2 32 -2 45 0 12 2 2 4 -23 4 -25 0 -35 -2 -22 -4z"/>
<path d="M1260 692 c0 -18 5 -32 10 -32 6 0 8 11 4 28 -10 39 -14 40 -14 4z"/>
<path d="M614 580 c0 -58 1 -81 3 -52 2 28 2 76 0 105 -2 28 -3 5 -3 -53z"/>
<path d="M1558 545 c-2 -63 0 -115 5 -115 4 0 7 52 7 115 0 63 -2 115 -4 115
-3 0 -6 -52 -8 -115z"/>
<path d="M1261 574 c0 -11 3 -14 6 -6 3 7 2 16 -1 19 -3 4 -6 -2 -5 -13z"/>
<path d="M10132 495 l-2 -60 -132 1 -133 1 130 -6 c72 -3 134 -3 138 0 4 3 6
33 4 65 l-3 59 -2 -60z"/>
<path d="M1263 480 c0 -30 2 -43 4 -27 2 15 2 39 0 55 -2 15 -4 2 -4 -28z"/>
<path d="M9490 475 c-1 -11 -2 -22 -2 -25 0 -3 -57 -7 -126 -9 -185 -5 -188
-20 -4 -21 162 0 158 -1 142 50 -7 22 -8 22 -10 5z"/>
<path d="M2521 444 c0 -11 3 -14 6 -6 3 7 2 16 -1 19 -3 4 -6 -2 -5 -13z"/>
<path d="M6325 450 c-3 -5 -1 -10 4 -10 6 0 11 5 11 10 0 6 -2 10 -4 10 -3 0
-8 -4 -11 -10z"/>
<path d="M7997 453 c18 -2 50 -2 70 0 21 2 7 4 -32 4 -38 0 -55 -2 -38 -4z"/>
<path d="M91 441 c-41 -3 -76 -11 -78 -16 -4 -13 127 -7 222 10 l70 13 -70 -1
c-38 0 -103 -3 -144 -6z"/>
<path d="M624 441 c-16 -17 15 -21 151 -21 91 0 155 4 155 9 0 10 -297 21
-306 12z"/>
<path d="M7423 443 c9 -2 23 -2 30 0 6 3 -1 5 -18 5 -16 0 -22 -2 -12 -5z"/>
<path d="M1288 433 c6 -2 18 -2 25 0 6 3 1 5 -13 5 -14 0 -19 -2 -12 -5z"/>
<path d="M5713 400 c0 -25 2 -35 4 -22 2 12 2 32 0 45 -2 12 -4 2 -4 -23z"/>
<path d="M1855 420 c-3 -5 1 -10 9 -10 9 0 16 5 16 10 0 6 -4 10 -9 10 -6 0
-13 -4 -16 -10z"/>
<path d="M8240 420 c0 -5 5 -10 11 -10 5 0 7 5 4 10 -3 6 -8 10 -11 10 -2 0
-4 -4 -4 -10z"/>
<path d="M1217 413 c17 -3 23 -12 25 -41 l3 -37 5 43 c5 41 5 42 -25 41 -22
-1 -24 -3 -8 -6z"/>
<path d="M5080 393 c0 -18 2 -33 4 -33 9 0 13 39 5 51 -6 10 -9 4 -9 -18z"/>
<path d="M8535 410 c-3 -5 -2 -10 4 -10 5 0 13 5 16 10 3 6 2 10 -4 10 -5 0
-13 -4 -16 -10z"/>
<path d="M10160 410 c-11 -7 -6 -10 20 -10 19 0 42 5 50 10 11 7 6 10 -20 10
-19 0 -42 -5 -50 -10z"/>
<path d="M944 393 c-2 -7 -6 -20 -9 -29 -3 -9 -3 -62 1 -118 l7 -101 153 3
154 3 0 -76 0 -75 160 0 160 0 0 69 0 69 -147 7 c-82 3 -154 8 -160 10 -8 3
-13 23 -14 52 0 26 -3 42 -6 36 -2 -7 -13 -13 -24 -13 -10 0 -19 -7 -19 -15 0
-8 -9 -15 -20 -15 -16 0 -20 7 -20 35 0 28 -4 35 -20 35 -11 0 -20 -7 -20 -15
0 -11 -11 -15 -40 -15 -33 0 -40 3 -40 20 0 13 -7 20 -20 20 -18 0 -20 7 -20
59 0 54 2 60 23 64 12 2 0 4 -27 3 -29 -1 -50 -6 -52 -13z"/>
<path d="M8913 403 c20 -2 54 -2 75 0 20 2 3 4 -38 4 -41 0 -58 -2 -37 -4z"/>
<path d="M9597 403 c18 -2 50 -2 70 0 21 2 7 4 -32 4 -38 0 -55 -2 -38 -4z"/>
<path d="M1884 300 c0 -58 1 -81 3 -52 2 28 2 76 0 105 -2 28 -3 5 -3 -53z"/>
<path d="M6010 293 c0 -60 -4 -113 -8 -120 -5 -9 -51 -13 -147 -16 l-140 -3
153 -2 152 -2 0 125 c0 69 -2 125 -5 125 -3 0 -5 -48 -5 -107z"/>
<path d="M1579 252 c-2 -64 0 -102 6 -102 6 0 9 29 7 72 -5 128 -8 136 -13 30z"/>
<path d="M5713 260 c0 -36 2 -50 4 -32 2 17 2 47 0 65 -2 17 -4 3 -4 -33z"/>
<path d="M8544 233 l-7 -77 -16 37 c-16 37 -41 50 -41 22 0 -8 7 -15 15 -15 9
0 15 -9 15 -25 0 -20 5 -25 25 -25 25 0 25 1 25 80 0 44 -2 80 -4 80 -2 0 -8
-35 -12 -77z"/>
<path d="M2838 253 c-3 -46 -4 -48 -40 -57 -21 -5 -38 -15 -38 -22 0 -9 -24
-14 -82 -17 -64 -2 -54 -3 45 -5 l127 -2 0 75 c0 84 -7 101 -12 28z"/>
<path d="M9810 271 c0 -30 -1 -31 -45 -31 l-45 0 0 -44 0 -45 49 2 49 2 4 68
c2 38 0 71 -4 74 -5 2 -8 -10 -8 -26z"/>
<path d="M2534 236 c3 -27 6 -57 6 -67 0 -11 4 -19 8 -19 9 0 -4 120 -15 129
-3 3 -3 -16 1 -43z"/>
<path d="M7909 225 c-4 -33 -5 -62 -3 -64 10 -12 15 12 12 65 l-3 59 -6 -60z"/>
<path d="M8882 260 c0 -14 2 -19 5 -12 2 6 2 18 0 25 -3 6 -5 1 -5 -13z"/>
<path d="M23 248 c-5 -7 -6 -53 -3 -103 4 -59 7 -73 8 -39 2 49 3 50 30 49 18
-2 20 -1 5 2 -23 4 -28 20 -24 76 2 30 -2 34 -16 15z"/>
<path d="M9177 240 c-5 -11 -19 -14 -52 -12 -36 3 -45 1 -45 -12 0 -9 -8 -16
-20 -16 -13 0 -20 -7 -20 -20 0 -16 -7 -20 -32 -20 -27 -1 -30 -2 -16 -11 10
-5 59 -8 110 -7 l93 3 -5 55 c-4 33 -9 49 -13 40z"/>
<path d="M3796 220 c-5 -14 -15 -33 -24 -42 -14 -17 -13 -18 6 -18 23 0 37 32
30 67 -3 15 -6 14 -12 -7z"/>
<path d="M4753 195 c0 -27 2 -38 4 -22 2 15 2 37 0 50 -2 12 -4 0 -4 -28z"/>
<path d="M10143 205 c0 -22 2 -30 4 -17 2 12 2 30 0 40 -3 9 -5 -1 -4 -23z"/>
<path d="M3492 175 c0 -16 2 -22 5 -12 2 9 2 23 0 30 -3 6 -5 -1 -5 -18z"/>
<path d="M9512 180 c0 -14 2 -19 5 -12 2 6 2 18 0 25 -3 6 -5 1 -5 -13z"/>
<path d="M2200 181 c0 -5 -10 -12 -22 -14 -20 -4 -19 -4 5 -6 18 -1 27 4 27
14 0 8 -2 15 -5 15 -3 0 -5 -4 -5 -9z"/>
<path d="M5365 179 c-4 -6 -5 -13 -2 -16 7 -7 27 6 27 18 0 12 -17 12 -25 -2z"/>
<path d="M605 170 c-3 -5 -1 -10 4 -10 6 0 11 5 11 10 0 6 -2 10 -4 10 -3 0
-8 -4 -11 -10z"/>
<path d="M8460 160 c-21 -7 -21 -8 -5 -9 11 0 27 4 35 9 18 11 5 11 -30 0z"/>
<path d="M6998 153 c7 -3 16 -2 19 1 4 3 -2 6 -13 5 -11 0 -14 -3 -6 -6z"/>
<path d="M7678 153 c34 -2 90 -2 125 0 34 2 6 3 -63 3 -69 0 -97 -1 -62 -3z"/>
<path d="M2220 74 l0 -74 161 0 161 0 -6 23 c-3 12 -6 41 -6 64 l0 41 -117 6
c-65 4 -135 8 -155 10 l-38 4 0 -74z"/>
<path d="M2856 143 c-8 -8 -8 -71 0 -112 11 -51 24 -35 24 29 0 58 1 60 27 60
29 0 28 8 -3 13 -10 1 -24 6 -30 10 -6 3 -14 4 -18 0z"/>
<path d="M3810 75 l0 -75 35 0 c28 0 35 4 35 20 0 13 -7 20 -20 20 -17 0 -20
7 -20 40 l0 39 53 8 52 7 -40 7 c-22 4 -52 8 -67 8 l-28 1 0 -75z"/>
<path d="M5395 117 c-4 -18 -5 -53 -2 -77 3 -38 4 -35 5 19 l2 63 43 -6 c23
-3 61 -8 85 -12 45 -6 92 1 92 14 0 13 -96 32 -160 32 -59 0 -59 0 -65 -33z"/>
<path d="M8938 143 c7 -3 16 -2 19 1 4 3 -2 6 -13 5 -11 0 -14 -3 -6 -6z"/>
<path d="M620 69 l0 -69 161 0 162 0 -7 31 c-3 17 -6 49 -6 71 l0 39 -155 -2
-155 -1 0 -69z m300 26 c0 -8 -4 -15 -10 -15 -5 0 -10 7 -10 15 0 8 5 15 10
15 6 0 10 -7 10 -15z"/>
<path d="M4762 70 c-1 -58 2 -70 10 -54 7 14 7 39 0 75 l-10 54 0 -75z"/>
<path d="M6728 133 c6 -2 18 -2 25 0 6 3 1 5 -13 5 -14 0 -19 -2 -12 -5z"/>
<path d="M8045 133 c-22 -2 -59 -6 -82 -9 l-43 -5 0 -60 0 -59 110 0 c104 0
110 1 110 20 0 15 -9 22 -30 26 -26 6 -30 11 -30 39 0 23 6 35 23 43 25 12 23
12 -58 5z"/>
<path d="M8560 71 l0 -71 160 0 160 0 -7 62 c-3 35 -8 65 -10 68 -3 3 -72 6
-154 8 l-149 3 0 -70z m297 12 c-3 -10 -5 -4 -5 12 0 17 2 24 5 18 2 -7 2 -21
0 -30z"/>
<path d="M9213 134 c-9 -4 -13 -28 -12 -72 1 -56 3 -61 9 -32 l7 35 2 -32 1
-33 134 0 134 0 -5 40 c-4 28 -2 40 7 40 8 0 11 -9 7 -28 -3 -15 -1 -34 4 -42
7 -10 8 8 6 54 l-5 70 -138 2 c-77 2 -145 1 -151 -2z"/>
<path d="M3460 120 c19 -13 30 -13 30 0 0 6 -10 10 -22 10 -19 0 -20 -2 -8
-10z"/>
<path d="M4848 123 c6 -2 18 -2 25 0 6 3 1 5 -13 5 -14 0 -19 -2 -12 -5z"/>
<path d="M6848 123 c6 -2 18 -2 25 0 6 3 1 5 -13 5 -14 0 -19 -2 -12 -5z"/>
<path d="M6923 123 c9 -2 25 -2 35 0 9 3 1 5 -18 5 -19 0 -27 -2 -17 -5z"/>
<path d="M3483 45 c0 -27 2 -38 4 -22 2 15 2 37 0 50 -2 12 -4 0 -4 -28z"/>
<path d="M291 64 c0 -11 3 -14 6 -6 3 7 2 16 -1 19 -3 4 -6 -2 -5 -13z"/>
<path d="M5690 66 c0 -7 -13 -16 -30 -19 -21 -5 -30 -12 -30 -27 0 -16 7 -20
35 -20 34 0 35 1 35 40 0 22 -2 40 -5 40 -3 0 -5 -6 -5 -14z"/>
<path d="M4123 35 c0 -22 2 -30 4 -17 2 12 2 30 0 40 -3 9 -5 -1 -4 -23z"/>
<path d="M6973 35 c0 -22 2 -30 4 -17 2 12 2 30 0 40 -3 9 -5 -1 -4 -23z"/>
<path d="M8227 53 c-11 -10 -8 -53 3 -53 6 0 10 13 10 30 0 31 -2 35 -13 23z"/>
<path d="M5062 25 c0 -17 2 -22 5 -12 2 9 2 23 0 30 -3 6 -5 -1 -5 -18z"/>
<path d="M5523 44 c-7 -3 -13 -14 -13 -25 0 -16 7 -19 45 -19 38 0 45 3 45 20
0 11 -6 20 -12 20 -7 0 -22 2 -33 5 -11 2 -26 2 -32 -1z"/>
<path d="M3172 20 c0 -14 2 -19 5 -12 2 6 2 18 0 25 -3 6 -5 1 -5 -13z"/>
<path d="M291 14 c0 -11 3 -14 6 -6 3 7 2 16 -1 19 -3 4 -6 -2 -5 -13z"/>
<path d="M6661 14 c0 -11 3 -14 6 -6 3 7 2 16 -1 19 -3 4 -6 -2 -5 -13z"/>
</g>
</svg>
